<?xml version="1.0" encoding="utf-8"?>
<!-- Generator: Adobe Illustrator 23.1.0, SVG Export Plug-In . SVG Version: 6.00 Build 0)  -->
<svg version="1.1" id="Capa_1" xmlns="http://www.w3.org/2000/svg" xmlns:xlink="http://www.w3.org/1999/xlink" x="0px" y="0px"
	 viewBox="0 0 512 512" style="enable-background:new 0 0 512 512;" xml:space="preserve">
<style type="text/css">
	.st0{fill:#004067;}
</style>
<g>
	<path class="st0" d="M430.8,391.2c-4.1,0-7.5,3.4-7.5,7.5v75.7c0,12.4-10.1,22.5-22.5,22.5H88.7V114c0-4.1-3.4-7.5-7.5-7.5
		c-4.1,0-7.5,3.4-7.5,7.5v390.5c0,4.1,3.4,7.5,7.5,7.5h319.6c20.7,0,37.5-16.8,37.5-37.5v-75.7C438.3,394.6,435,391.2,430.8,391.2z"
		/>
	<path class="st0" d="M400.8,0H81.2c-4.1,0-7.5,3.4-7.5,7.5V84c0,4.1,3.4,7.5,7.5,7.5c4.1,0,7.5-3.4,7.5-7.5V15h312.1
		c12.4,0,22.5,10.1,22.5,22.5v331.2c0,4.1,3.4,7.5,7.5,7.5s7.5-3.4,7.5-7.5V37.5C438.3,16.8,421.5,0,400.8,0z"/>
	<path class="st0" d="M357.1,180.6c0.5,4.1,4.3,7,8.4,6.5c4.1-0.5,7-4.3,6.5-8.4c-1.9-15-6.6-29-13.5-41.6c-1.1-2.1-2.3-4.1-3.6-6.1
		c-18.8-29.9-49.7-49.5-84.6-53.7c-10.8-1.3-21.8-1.1-32.5,0.5c-36.8,5.7-68.8,28.6-86.1,62.6c-0.1,0.2-0.2,0.5-0.3,0.7
		c-7.9,15.7-12.3,33.5-12.3,52.2s4.4,36.5,12.3,52.2c0.1,0.2,0.2,0.5,0.3,0.7c17.3,34,49.3,56.8,86.1,62.6
		c9.7,1.5,19.6,1.8,29.3,0.9c39.7-3.7,74.8-27.3,93.2-63.5c0.1-0.1,0.1-0.3,0.2-0.4c5.5-10.9,9.3-22.6,11.1-34.8
		c0.6-4.1-2.2-7.9-6.3-8.6c-4.1-0.6-7.9,2.2-8.6,6.3c-1.3,8.5-3.7,16.7-7,24.5c-11.6-4.2-24.4-7.6-37.9-10c1.2-9.7,1.9-19.7,1.9-30
		c0-10.3-0.6-20.3-1.9-30c13.5-2.5,26.3-5.9,38-10.1C353.4,161.9,355.9,171,357.1,180.6z M256,295.3c-10.1,0-20.6-10.1-28.6-27.7
		c-4.2-9.3-7.6-20-9.9-31.7c12.4-1.6,25.4-2.4,38.6-2.4c13.2,0,26.1,0.8,38.6,2.4c-2.4,11.7-5.7,22.5-9.9,31.7
		C276.6,285.2,266.1,295.3,256,295.3z M213.7,273.9c2.7,6,5.7,11.3,9,15.8c-22.3-7.7-41.2-23.1-53.4-42.9
		c10.3-3.6,21.5-6.5,33.3-8.7C205.2,251.4,208.9,263.5,213.7,273.9z M162.3,233.5c-5.3-12.3-8.2-25.8-8.2-40c0-14.2,2.9-27.7,8.2-40
		c11.6,4.2,24.4,7.6,37.9,10c-1.2,9.7-1.9,19.7-1.9,30c0,10.3,0.6,20.3,1.9,30C186.7,225.9,173.9,229.3,162.3,233.5z M169.3,139.9
		c12.3-19.8,31.1-35.1,53.4-42.9c-3.2,4.6-6.3,9.9-9,15.8c-4.8,10.5-8.5,22.6-11.1,35.7C190.7,146.4,179.5,143.5,169.3,139.9z
		 M227.4,119.2c8.1-17.6,18.5-27.7,28.6-27.7c10.1,0,20.6,10.1,28.6,27.7c4.2,9.3,7.6,20,9.9,31.7c-12.4,1.6-25.4,2.4-38.6,2.4
		c-13.2,0-26.1-0.8-38.6-2.4C219.8,139.2,223.1,128.4,227.4,119.2z M342.8,246.9c-5.4,8.8-12.1,16.7-20.1,23.6
		c-9.9,8.6-21.2,15-33.4,19.2c3.2-4.6,6.2-9.8,9-15.8c4.8-10.5,8.5-22.6,11.1-35.7C321.3,240.4,332.5,243.3,342.8,246.9z
		 M298.6,193.4c0,9.5-0.6,18.8-1.7,27.7c-13.2-1.7-27-2.6-41-2.6c-13.9,0-27.7,0.9-41,2.6c-1.1-8.9-1.7-18.2-1.7-27.7
		c0-9.5,0.6-18.8,1.7-27.7c13.2,1.7,27,2.6,41,2.6c13.9,0,27.7-0.9,41-2.6C298,174.6,298.6,183.9,298.6,193.4z M309.4,148.6
		c-2.6-13.1-6.3-25.2-11.1-35.7c-2.7-6-5.7-11.2-9-15.8c22.2,7.7,41.1,22.9,53.4,42.8C332.5,143.5,321.3,146.4,309.4,148.6z"/>
	<path class="st0" d="M146.6,369.4h218.9c4.1,0,7.5-3.4,7.5-7.5s-3.4-7.5-7.5-7.5H146.6c-4.1,0-7.5,3.4-7.5,7.5
		S142.4,369.4,146.6,369.4z"/>
	<path class="st0" d="M176.1,397.2c-4.1,0-7.5,3.4-7.5,7.5s3.4,7.5,7.5,7.5h159.9c4.1,0,7.5-3.4,7.5-7.5s-3.4-7.5-7.5-7.5H176.1z"/>
</g>
</svg>
